<?xml version="1.0" encoding="iso-8859-1"?>
<!-- Generator: Adobe Illustrator 19.0.0, SVG Export Plug-In . SVG Version: 6.00 Build 0)  -->
<svg xmlns="http://www.w3.org/2000/svg" xmlns:xlink="http://www.w3.org/1999/xlink" version="1.1" id="Layer_1" x="0px" y="0px" viewBox="0 0 299.995 299.995" style="enable-background:new 0 0 299.995 299.995;" xml:space="preserve" width="512px" height="512px">
<g>
	<g>
		<g>
			<path d="M149.995,0C67.156,0,0,67.158,0,149.995s67.156,150,149.995,150s150-67.163,150-150S232.834,0,149.995,0z      M224.239,166.417c-16.98,18.866-67.049,59.619-69.174,61.343c-1.489,1.211-3.286,1.826-5.07,1.74     c-0.054,0.003-0.112,0.003-0.169,0.003c-1.725,0-3.46-0.571-4.902-1.743c-2.124-1.725-52.188-42.478-69.163-61.341     c-18.612-20.689-18.49-50.445,0.283-69.218c19.161-19.164,50.344-19.164,69.506,0l4.448,4.448l4.451-4.451     c19.161-19.161,50.341-19.159,69.508,0C242.726,115.975,242.848,145.731,224.239,166.417z" fill="#fff"/>
		</g>
	</g>
</g>
<g>
</g>
<g>
</g>
<g>
</g>
<g>
</g>
<g>
</g>
<g>
</g>
<g>
</g>
<g>
</g>
<g>
</g>
<g>
</g>
<g>
</g>
<g>
</g>
<g>
</g>
<g>
</g>
<g>
</g>
</svg>
